# xmcd
#
# Track frame offsets:
#	150
#	12050
#	28732
#	39955
#	57187
#	68184
#	79972
#	96069
#	109647
#	119037
#	131582
#
# Disc length: 1958 seconds
#
# Revision: 0
# Processed by: cddbd v1.5.1PL2 Copyright (c) Steve Scherf et al.
# Submitted via: MusicManager 7.3.0.0 
#
DISCID=8c07a40b
DTITLE=Byrds - Sweetheart Of The Rodeo Restored GP Vocals
DYEAR=1900
DGENRE=country
TTITLE0=You Ain't Goin' Nowhere
TTITLE1=I Am A Pilgrim
TTITLE2=The Christian Life
TTITLE3=You Don't Miss Your Water
TTITLE4=You're Still On My Mind
TTITLE5=Pretty Boy Floyd
TTITLE6=Hickory Wind
TTITLE7=One Hundred Years from Now
TTITLE8=Blue Canadian Rockies
TTITLE9=Life In Prison
TTITLE10=Nothing Was Delivered
EXTD=
EXTT0=
EXTT1=
EXTT2=
EXTT3=
EXTT4=
EXTT5=
EXTT6=
EXTT7=
EXTT8=
EXTT9=
EXTT10=
PLAYORDER=
